<svg xmlns="http://www.w3.org/2000/svg" width="180" height="180" viewBox="0 0 180 180">
  <g id="Group_190947" data-name="Group 190947" transform="translate(-870 -450)">
    <circle id="Ellipse_8314" data-name="Ellipse 8314" cx="90" cy="90" r="90" transform="translate(870 450)" fill="#6f6f6f"/>
    <g id="Group_190946" data-name="Group 190946" transform="translate(852.03 -462.97)">
      <g id="Group_190928" data-name="Group 190928" transform="translate(53.673 946.673)">
        <rect id="Rectangle_150932" data-name="Rectangle 150932" width="112" height="112" transform="translate(0.297 0.297)" opacity="0"/>
      </g>
      <path id="Path_170238" data-name="Path 170238" d="M1.5,75.614a7.241,7.241,0,0,0,4,6.352,7.877,7.877,0,0,0,7.75,0L68.2,47.983a7.051,7.051,0,0,0,0-12.7L13.251,1.549a7.877,7.877,0,0,0-7.75,0A7.241,7.241,0,0,0,1.5,7.9Z" transform="translate(73.127 961.212)" fill="none" stroke="#fff" stroke-linecap="round" stroke-linejoin="round" stroke-width="5"/>
    </g>
  </g>
</svg>